# xmcd
#
# Track frame offsets:
#	150
#	15528
#	26053
#	41952
#	58051
#	70769
#	85586
#	104427
#	116585
#	131350
#
# Disc length: 1906 seconds
#
# Revision: 2
# Processed by: cddbd v1.5.1PL0 Copyright (c) Steve Scherf et al.
# Submitted via: MusicWizard 7.1.1b
#
DISCID=8107700a
DTITLE=Larry Gatlin And The Gatlin Brothers - Not Guilty
DYEAR=1981
DGENRE=Country
TTITLE0=She Used To Sing On Sunday
TTITLE1=Can't Take It With You
TTITLE2=Rain
TTITLE3=Hard Workin' Hands
TTITLE4=My Last Love Song
TTITLE5=In Like With Each Other
TTITLE6=Someone Else's Day
TTITLE7=Good Wilbur
TTITLE8=You Wouldn't Know Love
TTITLE9=What Are We Doin' Lonesome
EXTD=(c)1981 CBS Germany\nKatalog: CBS 85196\nAll songs written by Larry Gatlin.\nProduced by Larr
EXTD=y Gatlin, Steve Gatlin and Rudy Gatlin.\n
EXTT0=
EXTT1=
EXTT2=
EXTT3=
EXTT4=
EXTT5=
EXTT6=
EXTT7=
EXTT8=
EXTT9=
PLAYORDER=
